<?xml version="1.0" encoding="UTF-8"?>
<!DOCTYPE svg PUBLIC "-//W3C//DTD SVG 1.1//EN" "http://www.w3.org/Graphics/SVG/1.1/DTD/svg11.dtd">
<!-- Creator: CorelDRAW X8 -->
<svg xmlns="http://www.w3.org/2000/svg" xml:space="preserve" width="81.534mm" height="19.1535mm" version="1.1" style="shape-rendering:geometricPrecision; text-rendering:geometricPrecision; image-rendering:optimizeQuality; fill-rule:evenodd; clip-rule:evenodd"
viewBox="0 0 4184 983"
 xmlns:xlink="http://www.w3.org/1999/xlink">
 <defs>
  <style type="text/css">
   <![CDATA[
    .fil0 {fill:black}
    .fil1 {fill:#EA9242}
    @media (prefers-color-scheme: dark) {
    .fil0 {fill:white}
    }
   ]]>
  </style>
 </defs>
 <g id="Слой_x0020_1">
  <metadata id="CorelCorpID_0Corel-Layer"/>
  <g id="_2053634074160">
   <path class="fil0" d="M3215 674l0 309 969 0 0 -469 -727 120c-42,7 -77,13 -119,20l-123 20z"/>
   <path class="fil0" d="M4036 340l-1 -86c-43,-7 -125,6 -159,-5 -17,9 -284,4 -326,4 -112,0 -223,0 -335,0l0 352 697 -116c149,-25 125,-3 125,-80 -1,-23 0,-46 -1,-69z"/>
   <path class="fil0" d="M2785 631l13 0 49 148 -110 0c2,-17 16,-57 23,-74 8,-22 19,-48 25,-74zm-56 -100l-146 434 -152 -180c-32,-40 -28,-30 23,-90 26,-31 120,-134 131,-155l-122 8c-13,6 -3,0 -14,12 -27,30 -106,126 -133,141l0 -144 -57 0c-21,0 -19,4 -39,4l0 418 96 0 0 -161c13,9 60,65 77,83l46 55c13,16 16,22 42,23l196 0 26 -83 186 0 26 83 105 0 -131 -400c-23,-76 8,-48 -160,-48z"/>
   <path class="fil0" d="M387 470l-74 0 0 -87c39,0 76,-4 104,9 7,29 15,78 -30,78zm-287 -43c0,-54 27,-44 113,-44l0 87c-71,0 -113,12 -113,-43zm113 -131l-96 0c-67,0 -117,51 -117,118l0 30c0,58 48,113 104,113l109 0 0 52 95 -4c0,-58 -5,-48 61,-48 52,0 129,5 149,-81 22,-90 -18,-180 -110,-180l-100 0 0 -26 -95 0 0 26z"/>
   <path class="fil0" d="M1881 827l0 -248 -95 4 0 396 113 0c4,-15 69,-111 82,-131 13,-18 70,-120 92,-126l0 257 99 0 0 -404c0,-20 -11,-9 -52,-9 -81,-1 -64,4 -121,91 -19,29 -36,58 -56,88 -10,15 -18,27 -27,42 -13,22 -18,35 -35,40z"/>
   <path class="fil0" d="M100 827c0,-58 33,-48 113,-48l0 78c-39,0 -113,18 -113,-30zm265 30l-57 0 0 -83c88,0 113,-11 113,48 0,30 -26,35 -56,35zm-152 -187l0 22c-73,6 -213,7 -213,108l0 35c0,76 63,109 139,109 32,0 44,-5 74,-5l0 40 95 0 0 -40c52,0 130,6 171,-25 61,-46 65,-191 -25,-220 -54,-16 -86,-7 -146,-7l0 -21c-36,0 -57,4 -95,4z"/>
   <path class="fil0" d="M1082 892l0 -57c46,0 102,-11 152,0 0,62 9,52 -52,52 -24,0 -26,4 -48,5 -17,0 -35,0 -52,0zm-100 -252l0 339 265 0c40,0 75,-29 85,-63 7,-23 6,-100 -10,-125 -46,-75 -148,-38 -240,-38l0 -35c78,0 156,-7 230,-13l0 -96c-18,0 -22,4 -39,5 -14,0 -29,-1 -43,0 -20,1 -19,4 -39,4l-174 8c-19,0 -35,-4 -35,14z"/>
   <path class="fil0" d="M1477 766c0,-85 -13,-64 87,-65 42,-1 74,-18 74,26 0,33 -31,35 -65,34 -38,0 -58,5 -96,5zm-100 -157l0 370 100 0 0 -113c48,0 161,-1 195,-14 93,-35 77,-200 30,-237 -27,-22 -55,-26 -96,-20l-229 14z"/>
   <path class="fil0" d="M565 592c9,0 106,-5 115,-11l115 -137c12,-15 42,-60 61,-65l0 196c38,0 59,-5 96,-5l0 -300c-132,0 -97,-12 -149,47 -10,11 -11,15 -22,26 -12,12 -14,17 -24,28 -15,17 -76,98 -97,104l0 -205 -95 0 0 322z"/>
   <path class="fil1" d="M3876 249c34,11 116,-2 159,5l1 86c69,-5 143,-59 148,-117l0 -108c-1,-10 -3,-18 -7,-25 -14,-29 -38,-53 -67,-67 -27,-15 -64,-29 -111,-20 -50,9 -95,40 -118,82 -43,79 -16,115 -5,164z"/>
   <path class="fil0" d="M678 831l41 -89c8,-19 3,-22 24,-24 2,30 41,79 43,109 -36,0 -67,4 -108,4zm-13 -187c-7,30 -142,310 -144,335l96 0c2,-28 19,-34 22,-61l191 0c3,14 19,48 26,61l100 0 -148 -339c-53,0 -90,4 -143,4z"/>
   <path class="fil0" d="M995 375l83 0c17,0 14,-35 65,-35 71,0 50,-5 108,9 0,18 -1,21 -16,27 -14,5 -65,3 -84,3 -41,-1 -34,-8 -34,70 67,0 79,-6 139,8 0,47 -38,39 -100,39 -80,0 -59,-47 -83,-47l-82 0c0,103 72,119 161,109 66,-8 204,14 204,-66 0,-30 1,-66 -53,-78l0 -13c46,-4 44,-38 44,-65 0,-85 -260,-76 -310,-45 -26,16 -41,44 -42,84z"/>
   <path class="fil0" d="M1786 522c33,0 56,-2 83,-4 13,-1 29,1 43,0 21,0 22,-4 43,-4 14,-1 30,1 43,-1l127 -8 0 -17 -244 0 0 -35 213 0 0 -74 -213 0 0 -30 226 0c20,0 13,-25 13,-74l-334 0 0 247z"/>
   <path class="fil0" d="M2264 409l-70 92c45,0 73,-5 118,-5l21 -30c7,-7 -2,-9 18,-9 13,0 26,23 34,35l113 -9 -56 -65c16,-24 36,-47 54,-71 15,-20 50,-55 55,-77 -128,0 -93,-15 -154,64 -20,25 -23,36 -42,36 -12,0 -20,-18 -36,-37 -63,-78 -26,-63 -168,-63 3,13 100,131 113,139z"/>
   <path class="fil0" d="M1377 349l139 0c0,235 -12,187 48,186 67,-1 52,34 52,-186l139 0 0 -74 -378 0 0 74z"/>
  </g>
 </g>
</svg>
