<?xml version="1.0" encoding="UTF-8"?>
<!DOCTYPE svg PUBLIC "-//W3C//DTD SVG 1.1//EN" "http://www.w3.org/Graphics/SVG/1.1/DTD/svg11.dtd">
<!-- Creator: CorelDRAW X8 -->
<svg xmlns="http://www.w3.org/2000/svg" xml:space="preserve" width="100%" height="auto" version="1.1" style="shape-rendering:geometricPrecision; text-rendering:geometricPrecision; image-rendering:optimizeQuality; fill-rule:evenodd; clip-rule:evenodd"
viewBox="0 0 453 714"
 xmlns:xlink="http://www.w3.org/1999/xlink">
 <defs>
  <style type="text/css">
   <![CDATA[
    .str4 {stroke:#2B2A29;stroke-width:0.820129}
    .str11 {stroke:#E31E24;stroke-width:0.820129}
    .str1 {stroke:blue;stroke-width:0.820129}
    .str3 {stroke:lime;stroke-width:0.354273}
    .str2 {stroke:#2B2A29;stroke-width:1.39478;stroke-linejoin:bevel}
    .str0 {stroke:black;stroke-width:1.39478;stroke-linejoin:bevel}
    .str8 {stroke:#994C00;stroke-width:1.39478;stroke-linejoin:bevel}
    .str5 {stroke:#005F7F;stroke-width:0.697389;stroke-linejoin:bevel}
    .str9 {stroke:#5B5B5B;stroke-width:0.697389;stroke-linejoin:bevel}
    .str10 {stroke:#E31E24;stroke-width:0.354273;stroke-linejoin:bevel}
    .str7 {stroke:black;stroke-width:0.354273;stroke-linejoin:bevel}
    .str6 {stroke:#007F7F;stroke-width:0.354273;stroke-linejoin:bevel}
    .fil0 {fill:none}
    .fil2 {fill:black}
    .fil3 {fill:#CCCCCC}
    .fil1 {fill:yellow}
   ]]>
  </style>
 </defs>
 <g id="Слой_x0020_1">
  <metadata id="CorelCorpID_0Corel-Layer"/>
  <g id="_2161178281760">
   <polygon class="fil0 str0" points="1,1 1,714 452,714 452,593 317,593 317,1 "/>
   <polygon class="fil1 str1" points="50,451 25,451 25,401 50,401 "/>
   <polygon class="fil0 str0" points="237,300 237,310 247,310 247,300 "/>
   <polygon class="fil0 str0" points="236,299 236,311 248,311 248,299 "/>
   <polygon class="fil0 str0" points="156,300 156,310 167,310 167,300 "/>
   <polygon class="fil0 str0" points="156,299 156,311 167,311 167,299 "/>
   <polygon class="fil0 str0" points="156,430 156,440 167,440 167,430 "/>
   <polygon class="fil0 str0" points="156,429 156,441 167,441 167,429 "/>
   <polygon class="fil0 str0" points="76,430 76,440 86,440 86,430 "/>
   <polygon class="fil0 str0" points="75,429 75,441 87,441 87,429 "/>
   <line class="fil0 str0" x1="1" y1="594" x2="317" y2= "594" />
   <polygon class="fil0 str0" points="76,300 76,310 86,310 86,300 "/>
   <polygon class="fil0 str0" points="75,299 75,311 87,311 87,299 "/>
   <polygon class="fil0 str0" points="76,195 76,205 86,205 86,195 "/>
   <polygon class="fil0 str0" points="75,194 75,206 87,206 87,194 "/>
   <polygon class="fil0 str0" points="76,535 76,545 86,545 86,535 "/>
   <polygon class="fil0 str0" points="75,534 75,546 87,546 87,534 "/>
   <line class="fil0 str0" x1="68" y1="714" x2="68" y2= "594" />
   <polyline class="fil0 str0" points="328,713 328,642 317,642 317,713 "/>
   <polygon class="fil0 str0" points="1,146 1,158 317,158 317,146 "/>
   <polygon class="fil0 str0" points="328,653 328,642 452,642 452,653 "/>
   <line class="fil0 str0" x1="68" y1="658" x2="1" y2= "658" />
   <polygon class="fil0 str2" points="20,582 20,594 49,594 49,582 "/>
   <polygon class="fil0 str2" points="68,679 79,679 79,702 68,702 "/>
   <polygon class="fil0 str2" points="26,594 26,582 20,582 20,594 "/>
   <line class="fil0 str3" x1="20" y1="592" x2="21" y2= "594" />
   <line class="fil0 str3" x1="20" y1="590" x2="24" y2= "594" />
   <line class="fil0 str3" x1="20" y1="587" x2="26" y2= "593" />
   <line class="fil0 str3" x1="20" y1="584" x2="26" y2= "590" />
   <line class="fil0 str3" x1="20" y1="582" x2="26" y2= "588" />
   <line class="fil0 str3" x1="23" y1="582" x2="26" y2= "585" />
   <polygon class="fil0 str4" points="26,582 26,594 26,594 20,594 20,594 20,582 20,582 "/>
   <polygon class="fil0 str5" points="351,648 351,646 350,646 350,648 "/>
   <polygon class="fil0 str5" points="331,648 331,646 330,646 330,648 "/>
   <polygon class="fil0 str5" points="332,667 332,648 331,648 331,667 "/>
   <path class="fil0 str5" d="M331 667c10,-1 19,-9 19,-19"/>
   <polygon class="fil0 str5" points="271,157 271,155 272,155 272,157 "/>
   <polygon class="fil0 str5" points="291,157 291,155 292,155 292,157 "/>
   <polygon class="fil0 str5" points="290,176 290,157 291,157 291,176 "/>
   <path class="fil0 str5" d="M291 176c-10,0 -18,-9 -19,-19"/>
   <polygon class="fil0 str5" points="43,157 43,155 44,155 44,157 "/>
   <polygon class="fil0 str5" points="63,157 63,155 64,155 64,157 "/>
   <polygon class="fil0 str5" points="62,176 62,157 63,157 63,176 "/>
   <path class="fil0 str5" d="M63 176c-10,0 -19,-9 -19,-19"/>
   <polygon class="fil0 str5" points="290,642 290,644 291,644 291,642 "/>
   <polygon class="fil0 str5" points="310,642 310,644 311,644 311,642 "/>
   <polygon class="fil0 str5" points="309,623 309,642 310,642 310,623 "/>
   <path class="fil0 str5" d="M310 623c-10,1 -18,9 -19,19"/>
   <polygon class="fil0 str5" points="77,701 76,701 76,700 77,700 "/>
   <polygon class="fil0 str5" points="77,681 76,681 76,680 77,680 "/>
   <polygon class="fil0 str5" points="96,682 77,682 77,681 96,681 "/>
   <path class="fil0 str5" d="M96 681c0,10 -8,19 -19,19"/>
   <polygon class="fil0 str6" points="447,669 447,665 446,665 445,665 445,665 444,665 444,665 444,665 443,665 442,665 441,665 440,665 439,666 439,666 439,666 438,667 438,667 437,668 437,668 437,668 437,668 437,669 437,669 437,669 437,670 438,670 438,670 439,671 439,671 440,672 441,672 442,672 443,672 443,672 444,672 445,672 445,672 446,672 446,672 447,672 "/>
   <polygon class="fil0 str6" points="444,666 443,666 443,666 442,666 442,666 441,666 441,666 440,666 440,667 439,667 439,667 438,668 438,668 438,668 438,668 438,669 438,669 438,669 438,669 439,670 439,670 440,670 440,671 440,671 441,671 441,671 441,671 441,671 442,671 442,671 442,671 443,671 443,671 444,671 444,671 444,671 444,670 445,670 445,670 445,669 445,669 445,669 445,668 445,668 445,668 445,667 445,667 444,667 444,667 444,666 "/>
   <polyline class="fil0 str6" points="449,673 449,671 449,671 449,671 449,671 449,671 450,671 450,671 450,671 450,671 450,673 "/>
   <polygon class="fil0 str6" points="448,669 448,665 448,665 448,664 448,664 448,664 451,664 451,673 448,673 448,673 448,673 448,672 448,672 "/>
   <polygon class="fil0 str7" points="431,680 431,680 431,680 431,680 431,680 431,680 431,680 431,680 431,680 431,680 431,680 431,680 431,680 431,680 431,680 431,680 431,680 431,680 431,680 431,680 431,680 431,680 431,680 431,680 431,680 431,680 431,680 431,680 431,680 431,680 431,680 431,680 431,680 431,680 431,680 431,680 431,680 431,680 431,680 431,680 431,680 431,680 431,680 431,680 431,680 431,680 431,680 431,680 431,680 431,680 431,680 431,680 431,680 431,680 431,680 431,680 431,680 431,680 431,680 431,680 431,680 431,680 431,680 431,680 431,680 431,680 431,680 431,680 431,680 431,680 431,680 431,680 431,680 431,680 431,680 431,680 431,680 431,680 430,680 430,680 430,680 430,680 430,680 430,680 430,680 430,680 430,680 430,680 430,680 430,680 430,680 430,680 430,680 430,680 430,680 430,680 430,680 430,680 430,680 430,680 430,680 430,680 430,680 430,680 430,680 430,680 430,680 430,680 430,680 430,680 430,680 430,680 430,680 430,680 430,680 430,680 430,680 430,680 430,680 430,680 430,680 430,680 430,680 430,680 430,680 430,680 430,680 430,680 430,680 430,680 430,680 430,680 430,680 430,680 430,680 430,680 430,680 430,680 430,680 430,680 430,680 430,680 430,680 430,680 430,680 430,680 430,680 430,680 430,680 430,680 430,680 430,680 430,680 430,680 430,680 430,680 430,680 430,680 430,680 430,680 430,680 430,680 430,680 430,680 430,680 430,680 430,680 430,680 430,680 430,680 430,680 430,680 430,680 430,680 430,680 430,680 430,680 430,680 430,680 430,680 430,680 430,680 430,680 430,680 430,680 430,680 430,680 430,680 430,680 430,680 430,680 430,680 430,680 430,680 430,680 430,680 430,680 430,680 430,680 430,680 430,680 430,680 431,680 431,680 431,680 431,680 431,680 431,680 431,680 431,680 431,680 431,680 431,680 431,680 431,680 431,680 431,680 431,680 431,680 431,680 431,680 431,680 431,680 431,680 431,680 431,680 431,680 431,680 431,680 431,680 431,680 431,680 431,680 431,680 431,680 431,680 431,680 431,680 431,680 431,680 431,680 431,680 431,680 431,680 431,680 431,680 431,680 431,680 431,680 431,680 431,680 431,680 431,680 431,680 431,680 431,680 431,680 431,680 431,680 431,680 431,680 431,680 431,680 431,680 431,680 431,680 431,680 431,680 431,680 431,680 431,680 431,680 431,680 431,680 431,680 431,680 431,680 431,680 431,680 431,680 431,680 431,680 431,680 431,680 431,680 431,680 431,680 431,680 431,680 431,680 431,680 431,680 431,680 431,680 431,680 431,680 431,680 431,680 431,680 431,680 431,680 431,680 431,680 431,680 431,680 431,680 431,680 431,680 431,680 431,680 431,680 431,680 431,680 431,680 431,680 431,680 431,680 431,680 431,680 431,680 431,680 431,680 431,680 431,680 431,680 431,680 431,680 431,680 431,680 431,680 431,680 431,680 431,680 431,680 431,680 431,680 431,680 431,680 431,680 431,680 431,680 431,680 431,680 431,680 431,680 431,680 431,680 431,680 431,680 431,680 431,680 431,680 431,680 431,680 431,680 431,680 431,680 431,680 431,680 431,680 431,680 431,680 431,680 431,680 431,680 431,680 431,680 431,680 431,680 431,680 431,680 431,680 431,680 431,680 431,680 431,680 431,680 431,680 431,680 431,680 431,680 431,680 431,680 431,680 "/>
   <polygon class="fil0 str7" points="432,680 432,680 432,680 432,680 432,680 432,680 432,680 432,680 432,680 432,680 432,680 432,680 432,680 432,680 432,680 432,680 432,680 432,680 432,680 432,680 432,680 432,680 432,680 432,680 432,680 432,680 432,680 432,680 432,680 432,680 432,680 432,680 432,680 432,680 432,680 432,680 432,680 432,680 432,680 432,680 432,680 432,680 432,680 432,680 432,680 432,680 432,680 432,680 432,680 432,680 432,680 432,680 432,680 432,680 432,680 432,680 432,680 432,680 432,680 432,680 432,680 432,680 432,680 432,680 432,680 432,680 432,680 432,680 432,680 432,680 432,680 432,680 432,680 432,680 432,680 432,680 432,680 432,680 432,680 432,680 432,680 432,680 432,680 432,680 432,680 432,680 432,680 432,680 432,680 432,680 432,680 432,680 432,680 432,680 432,680 432,680 432,680 432,680 432,680 432,680 432,680 432,680 432,680 432,680 432,680 432,680 432,680 432,680 432,680 432,680 432,680 432,680 432,680 432,680 432,680 432,680 432,680 432,680 432,680 432,680 432,680 432,680 432,680 432,680 432,680 432,680 432,680 432,680 432,680 432,680 432,680 432,680 432,680 432,680 432,680 432,680 432,680 432,680 432,680 432,680 432,680 432,680 432,680 432,680 432,680 432,680 432,680 432,680 432,680 432,680 432,680 432,680 432,680 432,680 432,680 432,680 432,680 432,680 432,680 432,680 432,680 432,680 432,680 432,680 432,680 432,680 432,680 432,680 432,680 432,680 432,680 432,680 432,680 432,680 432,680 432,680 432,680 432,680 432,680 432,680 432,680 432,680 432,680 432,680 432,680 432,680 432,680 432,680 432,680 432,680 432,680 432,680 432,680 432,680 432,680 432,680 432,680 432,680 432,680 432,680 432,680 432,680 432,680 432,680 432,680 432,680 432,680 432,680 432,680 432,680 432,680 432,680 432,680 432,680 432,680 432,680 432,680 432,680 432,680 432,680 432,680 432,680 432,680 432,680 432,680 432,680 432,680 432,680 432,680 432,680 432,680 432,680 432,680 432,680 432,680 432,680 432,680 432,680 432,680 432,680 432,680 432,680 432,680 432,680 432,680 432,680 432,680 432,680 432,680 432,680 432,680 432,680 432,680 432,680 432,680 432,680 432,680 432,680 432,680 432,680 432,680 432,680 432,680 432,680 432,680 432,680 432,680 432,680 432,680 432,680 432,680 432,680 432,680 432,680 432,680 432,680 432,680 432,680 432,680 432,680 432,680 432,680 432,680 432,680 432,680 432,680 432,680 432,680 432,680 432,680 432,680 432,680 432,680 432,680 432,680 432,680 432,680 432,680 432,680 432,680 432,680 432,680 432,680 432,680 432,680 432,680 432,680 432,680 432,680 432,680 432,680 432,680 432,680 432,680 432,680 432,680 432,680 432,680 432,680 432,680 432,680 432,680 432,680 432,680 432,680 432,680 432,680 432,680 432,680 432,680 432,680 432,680 432,680 432,680 432,680 432,680 432,680 432,680 432,680 432,680 432,680 432,680 432,680 432,680 432,680 432,680 432,680 432,680 432,680 432,680 432,680 432,680 432,680 432,680 432,680 432,680 432,680 432,680 432,680 432,680 432,680 432,680 432,680 432,680 432,680 432,680 432,680 432,680 432,680 432,680 432,680 432,680 432,680 432,680 432,680 432,680 432,680 432,680 432,680 432,680 432,680 432,680 432,680 432,680 "/>
   <path class="fil0 str7" d="M431 680c2,0 3,-1 4,-2 0,0 0,-1 0,-1 0,-1 -1,-2 -2,-2l-3 0c-1,0 -2,1 -3,2 0,0 0,1 1,1 1,1 2,2 3,2"/>
   <path class="fil0 str7" d="M427 678c0,-1 0,-2 0,-2 1,-1 2,-1 3,-1l3 0c1,0 1,0 2,1 1,0 1,1 1,2l0 2 0 1 -9 0 0 -1 0 -2z"/>
   <path class="fil0 str7" d="M431 680c0,0 0,0 0,0 0,0 0,0 0,0 0,0 0,0 0,0"/>
   <line class="fil0 str7" x1="431" y1="680" x2="431" y2= "680" />
   <line class="fil0 str7" x1="431" y1="679" x2="431" y2= "680" />
   <path class="fil0 str7" d="M431 679c0,0 0,0 0,0 0,0 0,0 0,0"/>
   <line class="fil0 str7" x1="431" y1="680" x2="431" y2= "679" />
   <line class="fil0 str7" x1="431" y1="680" x2="431" y2= "679" />
   <path class="fil0 str7" d="M431 679c0,0 0,0 0,0 0,0 0,0 0,0 0,0 0,0 0,0"/>
   <path class="fil0 str7" d="M432 678c0,0 0,0 -1,0 0,0 0,0 0,0 0,1 0,1 0,1 1,0 1,0 1,-1z"/>
   <path class="fil0 str7" d="M431 680c0,0 0,0 0,0 0,0 0,0 0,0 0,0 0,0 0,0"/>
   <polygon class="fil2" points="431,680 431,680 431,680 431,680 431,680 431,680 "/>
   <polygon class="fil2" points="431,680 431,680 431,680 "/>
   <polygon class="fil2" points="431,680 431,680 431,680 "/>
   <polygon class="fil2" points="431,680 431,680 431,680 431,680 431,680 "/>
   <line class="fil0 str7" x1="431" y1="680" x2="431" y2= "679" />
   <polygon class="fil0 str6" points="333,701 333,698 334,698 334,698 335,698 335,697 335,697 336,697 337,698 338,698 339,698 340,698 340,698 341,699 341,699 342,699 342,700 342,700 342,700 343,701 343,701 343,701 343,701 343,702 342,702 342,702 342,703 341,703 340,704 339,704 339,704 338,705 337,705 336,705 336,705 335,705 335,705 334,705 333,705 333,704 "/>
   <polyline class="fil0 str6" points="331,705 331,704 331,703 331,703 330,703 330,703 330,703 330,703 330,704 330,704 330,705 "/>
   <polygon class="fil0 str6" points="332,701 332,697 332,697 332,697 332,697 332,697 329,697 329,705 331,705 332,705 332,705 332,705 332,705 "/>
   <line class="fil0 str8" x1="255" y1="645" x2="317" y2= "645" />
   <line class="fil0 str8" x1="255" y1="645" x2="255" y2= "594" />
   <line class="fil0 str8" x1="408" y1="653" x2="408" y2= "713" />
   <line class="fil0 str8" x1="452" y1="682" x2="408" y2= "682" />
   <path class="fil0 str5" d="M357 710c0,-4 2,-8 4,-10 3,-3 7,-5 11,-5"/>
   <line class="fil0 str5" x1="372" y1="710" x2="357" y2= "710" />
   <path class="fil0 str5" d="M425 657c0,4 -2,7 -5,10 -2,3 -6,4 -10,4"/>
   <line class="fil0 str5" x1="410" y1="657" x2="425" y2= "657" />
   <line class="fil0 str8" x1="372" y1="682" x2="328" y2= "682" />
   <line class="fil0 str8" x1="372" y1="682" x2="372" y2= "713" />
   <path class="fil0 str5" d="M424 710c0,-4 -1,-8 -4,-10 -3,-3 -6,-5 -10,-5"/>
   <line class="fil0 str5" x1="410" y1="710" x2="424" y2= "710" />
   <line class="fil0 str2" x1="79" y1="194" x2="79" y2= "158" />
   <line class="fil0 str2" x1="75" y1="206" x2="1" y2= "206" />
   <polyline class="fil0 str9" points="20,588 21,588 21,579 "/>
   <polyline class="fil0 str9" points="49,588 48,588 48,569 "/>
   <path class="fil0 str9" d="M29 588c0,-2 -1,-5 -2,-6 -2,-2 -4,-3 -6,-3"/>
   <path class="fil0 str9" d="M48 569c-5,0 -10,2 -13,6 -4,3 -6,8 -6,13"/>
   <polygon class="fil1 str1" points="228,53 228,78 178,78 178,53 "/>
   <polygon class="fil1 str1" points="50,513 25,513 25,463 50,463 "/>
   <polygon class="fil1 str1" points="205,199 205,224 155,224 155,199 "/>
   <polygon class="fil1 str1" points="121,646 103,646 103,597 121,597 "/>
   <polygon class="fil1 str1" points="50,401 25,401 25,351 50,351 "/>
   <polygon class="fil1 str1" points="50,335 25,335 25,285 50,285 "/>
   <polygon class="fil3 str1" points="144,462 148,455 152,448 160,448 168,448 172,455 175,462 "/>
   <polygon class="fil3 str1" points="175,462 172,455 168,448 172,441 175,435 183,435 191,435 "/>
   <polygon class="fil3 str1" points="191,435 183,435 175,435 172,428 168,421 172,414 175,408 "/>
   <polygon class="fil3 str1" points="175,408 172,414 168,421 160,421 152,421 148,414 144,408 "/>
   <polygon class="fil3 str1" points="129,435 136,435 144,435 148,441 152,448 148,455 144,462 "/>
   <polygon class="fil3 str1" points="144,408 148,414 152,421 148,428 144,435 136,435 129,435 "/>
   <line class="fil0 str10" x1="392" y1="654" x2="385" y2= "654" />
   <path class="fil0 str10" d="M389 664c2,-1 3,-2 3,-4"/>
   <line class="fil0 str10" x1="381" y1="655" x2="385" y2= "655" />
   <line class="fil0 str10" x1="385" y1="657" x2="382" y2= "657" />
   <path class="fil0 str10" d="M382 663c1,0 2,0 3,0"/>
   <path class="fil0 str10" d="M381 664c1,0 3,0 4,0"/>
   <line class="fil0 str10" x1="378" y1="654" x2="385" y2= "654" />
   <line class="fil0 str10" x1="380" y1="661" x2="380" y2= "656" />
   <path class="fil0 str10" d="M378 660c0,2 2,3 3,4"/>
   <line class="fil0 str10" x1="380" y1="660" x2="381" y2= "657" />
   <path class="fil0 str10" d="M380 660c0,1 0,2 1,2 0,1 0,1 1,1"/>
   <line class="fil0 str10" x1="378" y1="660" x2="378" y2= "654" />
   <path class="fil0 str10" d="M382 657c0,0 -1,0 -1,0"/>
   <path class="fil0 str10" d="M381 655c0,0 -1,0 -1,1"/>
   <line class="fil0 str10" x1="390" y1="660" x2="389" y2= "657" />
   <line class="fil0 str10" x1="391" y1="661" x2="390" y2= "656" />
   <path class="fil0 str10" d="M385 663c1,0 2,0 3,0"/>
   <path class="fil0 str10" d="M385 664c2,0 3,0 4,0"/>
   <path class="fil0 str10" d="M388 663c1,0 2,0 2,-1 0,0 0,-1 0,-2"/>
   <line class="fil0 str10" x1="389" y1="655" x2="385" y2= "655" />
   <line class="fil0 str10" x1="385" y1="657" x2="388" y2= "657" />
   <path class="fil0 str10" d="M386 658c0,0 -1,0 -1,0 0,0 0,0 0,0 0,0 0,1 0,1 0,0 1,-1 1,-1z"/>
   <path class="fil0 str10" d="M386 658c0,0 0,-1 -1,-1 0,0 -1,1 -1,1 0,1 1,1 1,1 1,0 1,0 1,-1z"/>
   <path class="fil0 str10" d="M385 656c0,0 0,-1 0,-1 0,0 0,1 0,1 0,0 0,0 0,0 0,0 0,0 0,0z"/>
   <path class="fil0 str10" d="M389 657c0,0 0,0 -1,0"/>
   <path class="fil0 str10" d="M390 656c0,-1 0,-1 -1,-1"/>
   <line class="fil0 str10" x1="392" y1="660" x2="392" y2= "654" />
   <line class="fil0 str10" x1="376" y1="653" x2="369" y2= "653" />
   <path class="fil0 str10" d="M373 663c2,-1 3,-2 3,-4"/>
   <line class="fil0 str10" x1="365" y1="654" x2="369" y2= "654" />
   <line class="fil0 str10" x1="369" y1="656" x2="366" y2= "656" />
   <path class="fil0 str10" d="M366 662c1,1 2,1 3,1"/>
   <path class="fil0 str10" d="M365 663c1,1 3,1 4,1"/>
   <line class="fil0 str10" x1="362" y1="653" x2="369" y2= "653" />
   <line class="fil0 str10" x1="364" y1="661" x2="364" y2= "655" />
   <path class="fil0 str10" d="M362 659c0,2 2,3 3,4"/>
   <line class="fil0 str10" x1="364" y1="660" x2="365" y2= "656" />
   <path class="fil0 str10" d="M364 660c0,0 0,1 1,1 0,1 0,1 1,1"/>
   <line class="fil0 str10" x1="362" y1="659" x2="362" y2= "653" />
   <path class="fil0 str10" d="M366 656c0,0 -1,0 -1,0"/>
   <path class="fil0 str10" d="M365 654c0,0 -1,1 -1,1"/>
   <line class="fil0 str10" x1="374" y1="660" x2="373" y2= "656" />
   <line class="fil0 str10" x1="375" y1="661" x2="374" y2= "655" />
   <path class="fil0 str10" d="M369 663c1,0 2,0 3,-1"/>
   <path class="fil0 str10" d="M369 664c2,0 3,0 4,-1"/>
   <path class="fil0 str10" d="M372 662c1,0 1,0 2,-1 0,0 0,-1 0,-1"/>
   <line class="fil0 str10" x1="373" y1="654" x2="369" y2= "654" />
   <line class="fil0 str10" x1="369" y1="656" x2="372" y2= "656" />
   <path class="fil0 str10" d="M370 657c0,0 -1,0 -1,0 0,0 0,0 0,0 0,1 0,1 0,1 0,0 1,0 1,-1z"/>
   <path class="fil0 str10" d="M370 657c0,0 0,0 -1,0 0,0 -1,0 -1,0 0,1 1,1 1,1 1,0 1,0 1,-1z"/>
   <path class="fil0 str10" d="M369 655c0,0 0,0 0,0 0,0 0,0 0,0 0,0 0,0 0,0 0,0 0,0 0,0z"/>
   <path class="fil0 str10" d="M373 656c0,0 0,0 -1,0"/>
   <path class="fil0 str10" d="M374 655c0,0 0,-1 -1,-1"/>
   <line class="fil0 str10" x1="376" y1="659" x2="376" y2= "653" />
   <polygon class="fil1 str1" points="147,54 147,79 97,79 97,54 "/>
   <polygon class="fil1 str1" points="2,158 2,202 14,202 14,158 "/>
   <polygon class="fil1 str1" points="129,231 105,231 105,181 129,181 "/>
   <polygon class="fil1 str1" points="129,281 105,281 105,231 129,231 "/>
   <polygon class="fil0 str4" points="167,332 160,332 160,311 167,311 "/>
   <polygon class="fil0 str4" points="160,332 153,332 153,311 160,311 "/>
   <polygon class="fil0 str4" points="153,332 147,332 147,311 153,311 "/>
   <polygon class="fil0 str4" points="147,332 140,332 140,311 147,311 "/>
   <polygon class="fil0 str4" points="140,332 133,332 133,311 140,311 "/>
   <polygon class="fil0 str4" points="127,332 120,332 120,311 127,311 "/>
   <polygon class="fil0 str4" points="107,332 100,332 100,311 107,311 "/>
   <polygon class="fil0 str4" points="100,332 94,332 94,311 100,311 "/>
   <polygon class="fil0 str4" points="94,332 87,332 87,311 94,311 "/>
   <polygon class="fil0 str11" points="267,332 261,332 261,311 267,311 "/>
   <polygon class="fil0 str11" points="261,332 254,332 254,311 261,311 "/>
   <polygon class="fil0 str11" points="254,332 247,332 247,311 254,311 "/>
   <polygon class="fil0 str11" points="247,332 241,332 241,311 247,311 "/>
   <polygon class="fil0 str11" points="241,332 234,332 234,311 241,311 "/>
   <polygon class="fil0 str11" points="234,332 227,332 227,311 234,311 "/>
   <polygon class="fil0 str11" points="221,332 214,332 214,311 221,311 "/>
   <polygon class="fil0 str11" points="214,332 208,332 208,311 214,311 "/>
   <polygon class="fil0 str11" points="208,332 201,332 201,311 208,311 "/>
   <polygon class="fil0 str11" points="201,332 194,332 194,311 201,311 "/>
   <polygon class="fil0 str11" points="194,332 188,332 188,311 194,311 "/>
   <polygon class="fil0 str4" points="167,311 167,332 188,332 188,311 "/>
  </g>
 </g>
</svg>
