<?xml version="1.0" encoding="UTF-8"?>
<!DOCTYPE svg PUBLIC "-//W3C//DTD SVG 1.1//EN" "http://www.w3.org/Graphics/SVG/1.1/DTD/svg11.dtd">
<!-- Creator: CorelDRAW X8 -->
<svg xmlns="http://www.w3.org/2000/svg" xml:space="preserve" width="18.7367mm" height="119.932mm" version="1.1" style="shape-rendering:geometricPrecision; text-rendering:geometricPrecision; image-rendering:optimizeQuality; fill-rule:evenodd; clip-rule:evenodd"
viewBox="0 0 22 142"
 xmlns:xlink="http://www.w3.org/1999/xlink">
 <defs>
  <style type="text/css">
   <![CDATA[
    .str7 {stroke:#00A0E3;stroke-width:0.418998}
    .str8 {stroke:#2B2A29;stroke-width:0.209499}
    .str5 {stroke:#009900;stroke-width:0.0904978}
    .str0 {stroke:black;stroke-width:0.106887;stroke-linejoin:bevel}
    .str1 {stroke:black;stroke-width:0.356291;stroke-linejoin:bevel}
    .str2 {stroke:blue;stroke-width:0.356291;stroke-linejoin:bevel}
    .str4 {stroke:#009900;stroke-width:0.296909;stroke-linejoin:bevel}
    .str3 {stroke:#005F7F;stroke-width:0.178145;stroke-linejoin:bevel}
    .str6 {stroke:#5B5B5B;stroke-width:0.178145;stroke-linejoin:bevel}
    .fil2 {fill:none}
    .fil0 {fill:none;fill-rule:nonzero}
    .fil1 {fill:#FFED00}
    .fil4 {fill:#EF7F1A}
    .fil3 {fill:#393185}
   ]]>
  </style>
 </defs>
 <g id="Слой_x0020_1">
  <metadata id="CorelCorpID_0Corel-Layer"/>
  <path class="fil0 str0" d="M8 122c2,0 3,-2 3,-3 0,-2 -1,-3 -3,-3 -1,0 -2,1 -2,3 0,1 1,3 2,3z"/>
  <path class="fil0 str0" d="M3 140c2,0 3,-1 3,-3 0,-1 -1,-2 -3,-2 -1,0 -2,1 -2,2 0,2 1,3 2,3l0 0z"/>
  <polyline class="fil0 str1" points="17,142 17,109 19,109 19,0 "/>
  <polyline class="fil0 str1" points="22,0 0,0 0,142 20,142 "/>
  <polyline class="fil0 str1" points="20,142 20,124 20,112 22,112 22,0 "/>
  <line class="fil0 str1" x1="17" y1="112" x2="0" y2= "112" />
  <line class="fil0 str1" x1="17" y1="131" x2="0" y2= "131" />
  <line class="fil0 str1" x1="17" y1="128" x2="0" y2= "128" />
  <polygon class="fil0 str2" points="5,109 5,112 12,112 12,109 "/>
  <polygon class="fil0 str2" points="19,67 22,67 22,62 19,62 "/>
  <polygon class="fil0 str3" points="21,67 20,67 20,67 21,67 "/>
  <polygon class="fil0 str3" points="21,62 20,62 20,62 21,62 "/>
  <polygon class="fil0 str3" points="20,62 15,62 15,62 20,62 "/>
  <path class="fil0 str3" d="M16 62c0,3 2,5 4,5"/>
  <line class="fil0 str0" x1="17" y1="109" x2="0" y2= "109" />
  <line class="fil0 str0" x1="22" y1="87" x2="22" y2= "109" />
  <line class="fil0 str0" x1="22" y1="87" x2="22" y2= "109" />
  <polygon class="fil0 str4" points="18,1 18,11 1,11 1,1 "/>
  <line class="fil0 str5" x1="1" y1="10" x2="2" y2= "11" />
  <line class="fil0 str5" x1="1" y1="7" x2="5" y2= "11" />
  <line class="fil0 str5" x1="1" y1="5" x2="7" y2= "11" />
  <line class="fil0 str5" x1="1" y1="2" x2="10" y2= "11" />
  <line class="fil0 str5" x1="1" y1="1" x2="12" y2= "11" />
  <line class="fil0 str5" x1="4" y1="1" x2="14" y2= "11" />
  <line class="fil0 str5" x1="6" y1="1" x2="17" y2= "11" />
  <line class="fil0 str5" x1="9" y1="1" x2="18" y2= "11" />
  <line class="fil0 str5" x1="11" y1="1" x2="18" y2= "8" />
  <line class="fil0 str5" x1="13" y1="1" x2="18" y2= "6" />
  <line class="fil0 str5" x1="16" y1="1" x2="18" y2= "4" />
  <line class="fil0 str5" x1="18" y1="1" x2="18" y2= "1" />
  <polyline class="fil0 str6" points="5,110 5,110 5,108 "/>
  <polyline class="fil0 str6" points="12,110 12,110 12,105 "/>
  <path class="fil0 str6" d="M7 110c0,0 0,-1 0,-1 -1,-1 -1,-1 -2,-1"/>
  <path class="fil0 str6" d="M12 105c-1,0 -2,1 -3,2 -1,1 -2,2 -2,3"/>
  <polygon class="fil0 str7" points="22,80 22,85 19,85 19,80 "/>
  <polygon class="fil0 str7" points="21,85 21,80 20,80 20,85 "/>
  <polygon class="fil0 str7" points="22,51 22,57 19,57 19,51 "/>
  <polygon class="fil0 str7" points="21,57 21,51 20,51 20,57 "/>
  <polygon class="fil1 str8" points="9,41 5,28 12,27 15,39 "/>
  <polygon class="fil1 str8" points="9,28 5,15 12,14 15,26 "/>
  <path class="fil1 str8" d="M17 86l-6 0c0,0 0,0 0,0l0 -7c0,0 0,-1 0,-1l6 0c0,0 0,1 0,1l0 7c0,0 0,0 0,0zm-4 -4l0 0c0,1 0,1 0,1l-1 0c0,0 0,0 0,-1l0 0c0,0 0,0 0,0l1 0c0,0 0,0 0,0zm3 0l0 0c0,1 0,1 0,1l-1 0c0,0 0,0 0,-1l0 0c0,0 0,0 0,0l1 0c0,0 0,0 0,0z"/>
  <polygon class="fil2 str8" points="19,68 19,72 0,72 0,68 "/>
  <path class="fil3" d="M15 76l-2 0c0,-1 0,-1 1,-1 0,0 1,0 1,1z"/>
  <line class="fil2 str8" x1="15" y1="76" x2="13" y2= "76" />
  <path class="fil2 str8" d="M14 77c-1,0 -1,0 -1,-1 0,-1 0,-1 1,-1 0,0 1,0 1,1 0,1 -1,1 -1,1z"/>
  <path class="fil3" d="M15 89l-2 0c0,0 0,1 1,1 0,0 1,-1 1,-1z"/>
  <line class="fil2 str8" x1="15" y1="89" x2="13" y2= "89" />
  <path class="fil2 str8" d="M14 88c-1,0 -1,0 -1,1 0,0 0,1 1,1 0,0 1,-1 1,-1 0,-1 -1,-1 -1,-1z"/>
  <polygon class="fil2 str8" points="10,68 10,72 5,72 5,68 "/>
  <polygon class="fil4 str8" points="5,73 5,77 1,77 1,73 "/>
  <polygon class="fil4 str8" points="5,73 5,74 1,74 1,73 "/>
  <polygon class="fil4 str8" points="5,74 5,77 4,77 4,74 "/>
  <polygon class="fil4 str8" points="5,74 5,77 4,77 4,74 "/>
  <polygon class="fil4 str8" points="1,74 1,77 1,77 1,74 "/>
  <polygon class="fil4 str8" points="1,91 1,88 5,88 5,91 "/>
  <polygon class="fil4 str8" points="1,91 1,90 5,90 5,91 "/>
  <polygon class="fil4 str8" points="1,90 1,88 1,88 1,90 "/>
  <polygon class="fil4 str8" points="1,90 1,88 1,88 1,90 "/>
  <polygon class="fil4 str8" points="4,90 4,88 5,88 5,90 "/>
  <polygon class="fil4 str8" points="5,44 5,48 1,48 1,44 "/>
  <polygon class="fil4 str8" points="5,44 5,45 1,45 1,44 "/>
  <polygon class="fil4 str8" points="5,45 5,48 4,48 4,45 "/>
  <polygon class="fil4 str8" points="5,45 5,48 4,48 4,45 "/>
  <polygon class="fil4 str8" points="1,45 1,48 1,48 1,45 "/>
  <polygon class="fil4 str8" points="1,62 1,58 5,58 5,62 "/>
  <polygon class="fil4 str8" points="1,62 1,61 5,61 5,62 "/>
  <polygon class="fil4 str8" points="1,61 1,58 2,58 2,61 "/>
  <polygon class="fil4 str8" points="1,61 1,58 2,58 2,61 "/>
  <polygon class="fil4 str8" points="4,61 4,58 5,58 5,61 "/>
  <path class="fil3" d="M15 16l-1 -2c0,0 1,0 1,0 0,1 0,2 0,2z"/>
  <line class="fil2 str8" x1="15" y1="16" x2="14" y2= "14" />
  <path class="fil2 str8" d="M13 16c0,-1 0,-1 1,-2 0,0 1,0 1,0 0,1 0,2 0,2 0,0 -1,0 -2,0z"/>
  <path class="fil3" d="M16 22l-2 -1c1,-1 2,-1 2,0 0,0 0,1 0,1z"/>
  <line class="fil2 str8" x1="16" y1="22" x2="14" y2= "21" />
  <path class="fil2 str8" d="M14 22c0,0 0,-1 0,-1 1,-1 2,-1 2,0 0,0 0,1 0,1 -1,1 -1,1 -2,0z"/>
  <path class="fil3" d="M15 29l-2 -1c1,-1 1,-1 2,0 0,0 0,1 0,1z"/>
  <line class="fil2 str8" x1="15" y1="29" x2="13" y2= "28" />
  <path class="fil2 str8" d="M13 29c0,0 0,-1 0,-1 1,-1 1,-1 2,0 0,0 0,1 0,1 -1,1 -1,1 -2,0z"/>
  <path class="fil3" d="M16 36l-1 -1c0,-1 1,-1 1,0 1,0 1,1 0,1z"/>
  <line class="fil2 str8" x1="16" y1="36" x2="15" y2= "35" />
  <path class="fil2 str8" d="M15 36c-1,0 -1,-1 0,-1 0,-1 1,-1 1,0 1,0 1,1 0,1 0,1 -1,1 -1,0z"/>
  <path class="fil3" d="M4 18l1 2c-1,0 -1,0 -2,-1 0,0 0,-1 1,-1z"/>
  <line class="fil2 str8" x1="4" y1="18" x2="5" y2= "20" />
  <path class="fil2 str8" d="M5 19c1,0 0,1 0,1 -1,0 -1,0 -2,-1 0,0 0,-1 1,-1 0,0 1,0 1,1z"/>
  <path class="fil3" d="M5 24l1 2c0,1 -1,0 -1,0 0,-1 0,-1 0,-2z"/>
  <line class="fil2 str8" x1="5" y1="24" x2="6" y2= "26" />
  <path class="fil2 str8" d="M7 25c0,0 0,1 -1,1 0,1 -1,0 -1,0 0,-1 0,-1 0,-2 1,0 2,0 2,1z"/>
  <path class="fil3" d="M6 38l0 2c0,0 -1,0 -1,-1 0,-1 0,-1 1,-1z"/>
  <line class="fil2 str8" x1="6" y1="38" x2="6" y2= "40" />
  <path class="fil2 str8" d="M7 38c0,1 0,1 -1,2 0,0 -1,0 -1,-1 0,-1 0,-1 1,-1 0,-1 1,0 1,0z"/>
 </g>
</svg>
