<?xml version="1.0" encoding="UTF-8"?>
<!DOCTYPE svg PUBLIC "-//W3C//DTD SVG 1.1//EN" "http://www.w3.org/Graphics/SVG/1.1/DTD/svg11.dtd">
<!-- Creator: CorelDRAW X8 -->
<svg xmlns="http://www.w3.org/2000/svg" xml:space="preserve" width="97.5878mm" height="143.022mm" version="1.1" style="shape-rendering:geometricPrecision; text-rendering:geometricPrecision; image-rendering:optimizeQuality; fill-rule:evenodd; clip-rule:evenodd"
viewBox="0 0 520 762"
 xmlns:xlink="http://www.w3.org/1999/xlink">
 <defs>
  <style type="text/css">
   <![CDATA[
    .str12 {stroke:#2B2A29;stroke-width:3.76164}
    .str11 {stroke:#2B2A29;stroke-width:2.82123}
    .str0 {stroke:#2B2A29;stroke-width:0.94041}
    .str14 {stroke:#E31E24;stroke-width:0.94041}
    .str13 {stroke:#008DD2;stroke-width:0.94041}
    .str10 {stroke:blue;stroke-width:0.94041}
    .str9 {stroke:black;stroke-width:0.479801;stroke-linejoin:bevel}
    .str3 {stroke:red;stroke-width:0.479801;stroke-linejoin:bevel}
    .str2 {stroke:#2B2A29;stroke-width:1.59934;stroke-linejoin:bevel}
    .str1 {stroke:black;stroke-width:1.59934;stroke-linejoin:bevel}
    .str6 {stroke:#994C00;stroke-width:1.59934;stroke-linejoin:bevel}
    .str7 {stroke:#005F7F;stroke-width:0.799669;stroke-linejoin:bevel}
    .str8 {stroke:#5B5B5B;stroke-width:0.799669;stroke-linejoin:bevel}
    .str5 {stroke:black;stroke-width:0.406232;stroke-linejoin:bevel}
    .str4 {stroke:#007F7F;stroke-width:0.406232;stroke-linejoin:bevel}
    .fil0 {fill:none}
    .fil4 {fill:none;fill-rule:nonzero}
    .fil3 {fill:#FEFEFE}
    .fil5 {fill:#E31E24}
    .fil1 {fill:black}
    .fil2 {fill:yellow}
   ]]>
  </style>
 </defs>
 <g id="Слой_x0020_1">
  <metadata id="CorelCorpID_0Corel-Layer"/>
  <g id="_2161178280384">
   <polygon class="fil0 str0" points="100,567 364,567 364,595 100,595 100,595 1,595 1,109 87,109 87,0 285,0 285,284 100,284 "/>
   <line class="fil0 str1" x1="208" y1="746" x2="261" y2= "746" />
   <polyline class="fil0 str1" points="345,746 519,746 519,655 "/>
   <polyline class="fil0 str1" points="364,595 364,608 519,608 519,622 519,656 "/>
   <polygon class="fil0 str1" points="272,272 272,283 284,283 284,272 "/>
   <polygon class="fil0 str1" points="272,271 272,284 285,284 285,271 "/>
   <polygon class="fil0 str1" points="180,272 180,283 192,283 192,272 "/>
   <polygon class="fil0 str1" points="179,271 179,284 192,284 192,271 "/>
   <polygon class="fil0 str1" points="88,420 88,432 100,432 100,420 "/>
   <polygon class="fil0 str1" points="87,420 87,433 100,433 100,420 "/>
   <line class="fil0 str1" x1="261" y1="746" x2="208" y2= "746" />
   <line class="fil0 str1" x1="79" y1="746" x2="205" y2= "746" />
   <line class="fil0 str1" x1="1" y1="595" x2="138" y2= "595" />
   <polygon class="fil0 str1" points="88,272 88,283 100,283 100,272 "/>
   <polygon class="fil0 str1" points="87,271 87,284 100,284 100,271 "/>
   <line class="fil0 str1" x1="261" y1="762" x2="261" y2= "746" />
   <line class="fil0 str1" x1="341" y1="762" x2="341" y2= "746" />
   <polygon class="fil0 str1" points="88,151 88,163 100,163 100,151 "/>
   <polygon class="fil0 str1" points="87,150 87,163 100,163 100,150 "/>
   <polygon class="fil0 str1" points="88,541 88,553 100,553 100,541 "/>
   <polygon class="fil0 str1" points="87,540 87,554 100,554 100,540 "/>
   <line class="fil0 str1" x1="79" y1="746" x2="79" y2= "595" />
   <polyline class="fil0 str1" points="377,746 377,663 364,663 364,746 "/>
   <polygon class="fil0 str1" points="377,677 377,663 519,663 519,677 "/>
   <line class="fil0 str1" x1="386" y1="762" x2="386" y2= "746" />
   <line class="fil0 str1" x1="420" y1="762" x2="420" y2= "746" />
   <line class="fil0 str1" x1="433" y1="762" x2="433" y2= "746" />
   <polygon class="fil0 str2" points="433,746 433,762 466,762 466,746 "/>
   <polygon class="fil0 str2" points="307,746 307,762 341,762 341,746 "/>
   <polygon class="fil0 str2" points="261,746 261,762 294,762 294,746 "/>
   <polyline class="fil0 str2" points="341,759 341,755 307,755 307,753 341,753 "/>
   <polyline class="fil0 str2" points="294,762 294,755 261,755 261,753 294,753 "/>
   <polygon class="fil0 str2" points="330,595 330,609 304,609 304,595 "/>
   <polygon class="fil0 str2" points="214,95 214,109 252,109 252,95 "/>
   <polygon class="fil0 str2" points="124,95 124,109 162,109 162,95 "/>
   <polygon class="fil0 str2" points="386,746 386,762 420,762 420,746 "/>
   <polyline class="fil0 str2" points="466,759 466,755 433,755 433,753 466,753 "/>
   <polyline class="fil0 str2" points="420,762 420,755 386,755 386,753 420,753 "/>
   <polygon class="fil0 str2" points="79,706 91,706 91,732 79,732 "/>
   <path class="fil0 str3" d="M410 652c0,0 1,0 1,0 0,-1 -1,-1 -1,-1 -1,0 -1,0 -1,1 0,0 0,0 1,0z"/>
   <polygon class="fil0 str4" points="382,732 382,728 383,728 384,728 384,728 385,727 385,727 386,727 387,728 388,728 389,728 390,728 391,729 391,729 392,729 392,730 393,730 393,730 393,731 393,731 394,731 394,732 394,732 393,732 393,733 393,733 392,734 392,734 391,735 390,735 389,735 388,736 387,736 386,736 385,736 385,736 384,736 384,736 383,736 382,735 "/>
   <polygon class="fil0 str4" points="386,729 386,729 387,729 387,729 388,729 389,729 389,729 390,729 390,729 391,730 392,730 392,730 392,731 392,731 392,731 392,732 392,732 392,732 392,733 392,733 391,733 391,734 390,734 390,734 389,734 389,734 389,735 388,735 388,735 388,735 387,735 387,735 387,735 386,734 386,734 385,734 385,734 385,733 385,733 384,733 384,732 384,732 384,731 384,731 384,731 385,730 385,730 385,730 385,729 386,729 "/>
   <polyline class="fil0 str4" points="380,736 380,735 380,734 380,734 380,734 379,734 379,734 379,734 379,735 379,735 379,736 "/>
   <polygon class="fil0 str4" points="381,732 381,727 381,727 381,727 381,727 381,727 378,727 378,736 381,736 381,736 381,736 381,736 381,736 "/>
   <polygon class="fil0 str5" points="416,715 416,715 416,715 416,715 416,715 416,715 416,715 416,715 416,715 416,715 416,715 416,715 416,715 416,715 416,715 416,715 416,715 416,715 416,715 416,715 416,715 416,715 416,715 416,715 416,715 416,715 416,715 416,715 416,715 416,715 416,715 416,715 416,715 416,715 416,715 416,715 416,715 416,715 416,715 416,715 416,715 416,715 416,715 416,715 416,715 416,715 416,715 416,715 416,715 416,715 416,715 416,715 416,715 416,715 416,715 416,715 416,715 416,715 416,715 416,715 416,715 416,715 416,715 416,715 416,715 416,715 416,715 416,715 416,715 416,715 416,715 416,715 416,715 416,715 416,715 416,715 416,715 416,715 416,715 416,715 416,715 416,715 416,715 416,715 416,715 416,715 416,715 416,715 416,715 416,715 416,715 416,715 416,715 416,715 416,715 416,715 416,715 416,715 416,715 416,715 416,715 416,715 416,715 416,715 416,715 416,715 416,715 416,715 416,715 416,715 416,715 416,715 416,715 416,715 416,715 416,715 416,715 416,715 416,715 416,715 416,715 416,715 416,715 416,715 416,715 416,715 416,715 416,715 416,715 416,715 416,715 416,715 416,715 416,714 416,714 416,714 416,714 416,714 416,714 416,714 416,714 416,714 416,714 416,714 416,714 416,714 416,714 416,714 416,714 416,714 416,714 416,714 416,714 416,714 416,714 416,714 416,714 416,714 416,714 416,714 416,714 416,714 416,714 416,714 416,714 416,714 416,714 416,714 416,714 416,714 416,714 416,714 416,714 416,714 416,714 416,714 416,714 416,714 416,714 416,714 416,714 416,714 416,714 416,714 416,714 416,714 416,714 416,714 416,714 416,714 416,714 416,714 416,714 416,714 416,714 416,714 416,714 416,714 416,714 416,714 416,714 416,714 416,714 416,714 416,714 416,714 416,714 416,714 416,714 416,714 416,714 416,714 416,714 416,714 416,714 416,714 416,714 416,714 416,714 416,714 416,714 416,714 416,714 416,714 416,714 416,714 416,714 416,714 416,714 416,714 416,714 416,714 416,714 416,714 416,714 416,714 416,714 416,714 416,714 416,714 416,714 416,714 416,714 416,714 416,714 416,714 416,714 416,714 416,714 416,714 416,714 416,714 416,714 416,714 416,714 416,714 416,714 416,714 416,714 416,714 416,714 416,714 416,714 416,714 416,714 416,714 416,714 416,714 416,714 416,714 416,714 416,714 416,714 416,714 416,714 416,714 416,714 416,714 416,714 416,714 416,714 416,714 416,714 416,714 416,714 416,714 416,714 416,714 416,714 416,714 416,714 416,714 416,714 416,714 416,714 416,714 416,714 416,714 416,714 416,714 416,714 416,714 416,714 416,714 416,714 416,714 416,714 416,714 416,714 416,714 416,714 416,714 416,714 416,714 416,714 416,714 416,714 416,714 416,714 416,714 416,714 416,714 416,714 416,714 416,714 416,714 416,714 416,714 416,714 416,714 416,714 416,714 416,714 416,714 416,714 416,714 416,715 416,715 416,715 416,715 416,715 416,715 416,715 416,715 416,715 416,715 416,715 416,715 416,715 416,715 416,715 416,715 416,715 416,715 416,715 416,715 416,715 416,715 416,715 416,715 416,715 416,715 416,715 416,715 416,715 416,715 416,715 416,715 416,715 416,715 416,715 416,715 416,715 416,715 416,715 416,715 416,715 416,715 416,715 416,715 416,715 416,715 416,715 416,715 "/>
   <polygon class="fil0 str5" points="417,715 417,715 417,715 417,715 417,715 417,715 417,715 417,715 417,715 417,715 417,715 417,715 417,715 417,715 417,715 417,715 417,715 417,715 417,715 417,715 417,715 417,715 417,715 417,715 417,715 417,715 417,715 417,715 417,715 417,715 417,715 417,715 417,715 417,715 417,715 417,715 417,715 417,715 417,715 417,715 417,715 417,715 417,715 417,715 417,715 417,715 417,715 417,715 417,715 417,715 417,715 417,715 417,715 417,715 417,715 417,715 417,715 417,715 417,715 417,715 417,715 417,715 417,715 417,715 417,715 417,715 417,715 417,715 417,715 417,715 417,715 417,715 417,715 417,715 417,715 417,715 417,715 417,715 417,715 417,715 417,715 417,715 417,715 417,715 417,715 417,715 417,715 417,715 417,715 417,715 417,715 417,715 417,715 417,715 417,715 417,715 417,715 417,715 417,715 417,715 417,715 417,715 417,715 417,715 417,715 417,715 417,715 417,715 417,715 417,715 417,715 417,715 417,715 417,715 417,715 417,715 417,715 417,715 417,715 417,715 417,715 417,715 417,715 418,715 418,715 418,715 418,715 418,715 418,715 418,715 418,715 418,715 418,715 418,715 418,715 418,715 418,715 418,715 418,715 418,715 418,715 418,715 418,715 418,715 418,715 418,715 418,715 418,715 418,715 418,715 418,715 418,715 418,715 418,715 418,715 418,715 418,715 418,715 418,715 418,715 418,715 418,715 418,715 418,715 418,715 418,715 418,715 418,715 418,715 418,715 418,715 418,714 418,714 418,714 418,714 418,714 418,714 418,714 418,714 418,714 418,714 418,714 418,714 418,714 418,714 418,714 418,714 418,714 418,714 418,714 418,714 418,714 418,714 418,714 418,714 418,714 418,714 418,714 418,714 418,714 418,714 418,714 418,714 418,714 418,714 418,714 418,714 418,714 418,714 418,714 418,714 418,714 418,714 418,714 418,714 418,714 418,714 418,714 418,714 418,714 418,714 418,714 418,714 417,714 417,714 417,714 417,714 417,714 417,714 417,714 417,714 417,714 417,714 417,714 417,714 417,714 417,714 417,714 417,714 417,714 417,714 417,714 417,714 417,714 417,714 417,714 417,714 417,714 417,714 417,714 417,714 417,714 417,714 417,714 417,714 417,714 417,714 417,714 417,714 417,714 417,714 417,714 417,714 417,714 417,714 417,714 417,714 417,714 417,714 417,714 417,714 417,714 417,714 417,714 417,714 417,714 417,714 417,714 417,714 417,714 417,714 417,714 417,714 417,714 417,714 417,714 417,714 417,714 417,714 417,714 417,714 417,714 417,714 417,714 417,714 417,714 417,714 417,714 417,714 417,714 417,714 417,714 417,714 417,714 417,714 417,714 417,714 417,714 417,714 417,714 417,714 417,714 417,714 417,714 417,714 417,714 417,714 417,714 417,714 417,714 417,714 417,714 417,714 417,714 417,714 417,714 417,714 417,714 417,714 417,714 417,714 417,714 417,714 417,714 417,714 417,714 417,714 417,714 417,714 417,714 417,714 417,714 417,714 417,714 417,714 417,714 417,714 417,714 417,714 417,714 417,714 417,714 417,714 417,714 417,714 417,714 417,714 417,714 417,714 417,714 417,714 417,714 417,714 417,714 417,714 417,714 417,714 417,714 417,714 417,714 417,714 417,714 417,714 417,714 417,715 417,715 417,715 417,715 417,715 417,715 417,715 417,715 417,715 417,715 "/>
   <path class="fil0 str5" d="M417 715c1,0 3,0 4,1 0,1 0,2 0,2 -1,1 -2,2 -3,2l-3 0c-1,0 -2,-1 -3,-2 0,0 0,-1 1,-2 1,-1 2,-1 3,-1"/>
   <path class="fil0 str5" d="M411 717c0,1 1,2 1,3 1,0 2,1 3,1l3 0c1,0 2,-1 3,-1 1,-1 1,-2 1,-3l0 -3 -1 0 -9 0 -1 0 0 3z"/>
   <path class="fil0 str5" d="M416 714c0,0 0,0 0,0 1,0 1,0 1,0 0,0 0,0 0,0"/>
   <line class="fil0 str5" x1="417" y1="714" x2="417" y2= "714" />
   <line class="fil0 str5" x1="417" y1="716" x2="417" y2= "714" />
   <path class="fil0 str5" d="M417 716c0,0 0,0 0,0 0,0 -1,0 -1,0"/>
   <line class="fil0 str5" x1="416" y1="714" x2="416" y2= "716" />
   <line class="fil0 str5" x1="416" y1="714" x2="416" y2= "716" />
   <path class="fil0 str5" d="M417 716c0,0 0,0 0,0 0,0 0,0 0,0 -1,0 -1,0 -1,0"/>
   <path class="fil0 str5" d="M417 717c0,0 0,0 0,0 -1,0 -1,0 -1,0 0,-1 0,-1 1,-1 0,0 0,0 0,1z"/>
   <path class="fil0 str5" d="M416 714c0,0 0,0 0,0 1,0 1,0 1,0 0,0 0,0 0,0"/>
   <polygon class="fil1" points="417,715 417,714 417,714 417,714 417,714 417,714 "/>
   <polygon class="fil1" points="417,714 416,714 417,714 "/>
   <polygon class="fil1" points="417,714 417,714 417,714 "/>
   <polygon class="fil1" points="416,714 416,715 416,714 417,714 417,714 "/>
   <line class="fil0 str5" x1="417" y1="714" x2="417" y2= "716" />
   <line class="fil0 str6" x1="297" y1="664" x2="364" y2= "663" />
   <line class="fil0 str6" x1="293" y1="667" x2="364" y2= "667" />
   <line class="fil0 str6" x1="297" y1="664" x2="297" y2= "609" />
   <line class="fil0 str6" x1="293" y1="667" x2="293" y2= "609" />
   <line class="fil0 str6" x1="469" y1="677" x2="469" y2= "746" />
   <path class="fil0 str7" d="M393 709c0,-4 2,-9 5,-12 3,-3 7,-5 12,-5"/>
   <line class="fil0 str7" x1="365" y1="704" x2="348" y2= "704" />
   <path class="fil0 str7" d="M452 680c0,4 2,8 5,11 3,3 7,5 12,5"/>
   <line class="fil0 str7" x1="452" y1="681" x2="469" y2= "681" />
   <line class="fil0 str6" x1="472" y1="677" x2="472" y2= "746" />
   <line class="fil0 str6" x1="424" y1="713" x2="377" y2= "713" />
   <line class="fil0 str6" x1="427" y1="709" x2="377" y2= "709" />
   <line class="fil0 str6" x1="424" y1="713" x2="424" y2= "746" />
   <line class="fil0 str6" x1="427" y1="709" x2="427" y2= "746" />
   <path class="fil0 str7" d="M453 743c-1,-4 1,-9 4,-12 3,-3 8,-5 12,-5"/>
   <line class="fil0 str7" x1="452" y1="744" x2="468" y2= "744" />
   <line class="fil0 str2" x1="56" y1="151" x2="56" y2= "110" />
   <line class="fil0 str2" x1="87" y1="159" x2="2" y2= "159" />
   <polyline class="fil0 str8" points="23,602 24,602 24,592 "/>
   <polyline class="fil0 str8" points="57,602 55,602 55,580 "/>
   <path class="fil0 str8" d="M34 602c0,-3 -1,-5 -3,-7 -2,-2 -4,-3 -7,-3"/>
   <path class="fil0 str8" d="M55 580c-5,0 -11,3 -15,7 -4,4 -6,9 -6,15"/>
   <path class="fil0 str3" d="M410 652c0,0 1,0 1,0 0,-1 -1,-1 -1,-1 -1,0 -1,0 -1,1 0,0 0,0 1,0z"/>
   <line class="fil0 str9" x1="409" y1="632" x2="462" y2= "632" />
   <line class="fil0 str9" x1="470" y1="632" x2="495" y2= "632" />
   <line class="fil0 str9" x1="470" y1="634" x2="495" y2= "634" />
   <line class="fil0 str9" x1="409" y1="634" x2="463" y2= "634" />
   <line class="fil0 str9" x1="409" y1="640" x2="495" y2= "640" />
   <line class="fil0 str9" x1="445" y1="609" x2="463" y2= "634" />
   <line class="fil0 str9" x1="452" y1="609" x2="470" y2= "634" />
   <line class="fil0 str9" x1="409" y1="641" x2="495" y2= "641" />
   <line class="fil0 str9" x1="488" y1="609" x2="488" y2= "634" />
   <line class="fil0 str9" x1="481" y1="609" x2="481" y2= "634" />
   <line class="fil0 str9" x1="473" y1="609" x2="473" y2= "634" />
   <line class="fil0 str9" x1="473" y1="640" x2="473" y2= "663" />
   <line class="fil0 str9" x1="466" y1="609" x2="466" y2= "628" />
   <line class="fil0 str9" x1="466" y1="640" x2="466" y2= "663" />
   <line class="fil0 str9" x1="459" y1="609" x2="459" y2= "618" />
   <line class="fil0 str9" x1="459" y1="628" x2="459" y2= "634" />
   <line class="fil0 str9" x1="459" y1="640" x2="459" y2= "663" />
   <line class="fil0 str9" x1="452" y1="618" x2="452" y2= "634" />
   <line class="fil0 str9" x1="452" y1="640" x2="452" y2= "663" />
   <line class="fil0 str9" x1="445" y1="609" x2="445" y2= "634" />
   <line class="fil0 str9" x1="445" y1="640" x2="445" y2= "663" />
   <line class="fil0 str9" x1="438" y1="609" x2="438" y2= "634" />
   <line class="fil0 str9" x1="438" y1="640" x2="438" y2= "663" />
   <line class="fil0 str9" x1="430" y1="609" x2="430" y2= "634" />
   <line class="fil0 str9" x1="430" y1="640" x2="430" y2= "663" />
   <line class="fil0 str9" x1="423" y1="609" x2="423" y2= "634" />
   <line class="fil0 str9" x1="423" y1="640" x2="423" y2= "663" />
   <line class="fil0 str9" x1="416" y1="640" x2="416" y2= "663" />
   <line class="fil0 str9" x1="409" y1="609" x2="409" y2= "663" />
   <polygon class="fil2 str10" points="209,745 364,745 364,731 209,731 "/>
   <polygon class="fil3 str11" points="87,153 87,160 62,160 62,153 "/>
   <polygon class="fil3 str11" points="1,153 1,160 42,160 42,153 "/>
   <line class="fil0 str12" x1="42" y1="156" x2="57" y2= "169" />
   <polygon class="fil0 str0" points="377,683 377,705 364,705 364,683 "/>
   <path class="fil0 str7" d="M349 704c0,-5 2,-9 5,-12 3,-3 7,-5 12,-5"/>
   <line class="fil0 str13" x1="410" y1="711" x2="410" y2= "690" />
   <polygon class="fil0 str0" points="306,664 328,664 328,668 306,668 "/>
   <line class="fil0 str0" x1="306" y1="667" x2="317" y2= "691" />
   <polygon class="fil4 str14" points="126,567 126,595 100,595 100,567 "/>
   <polygon class="fil0 str7" points="227,109 227,107 228,107 228,109 "/>
   <polygon class="fil0 str7" points="250,109 250,107 251,107 251,109 "/>
   <polygon class="fil0 str7" points="249,130 249,109 250,109 250,130 "/>
   <path class="fil0 str7" d="M250 130c-12,0 -21,-10 -22,-21"/>
   <polygon class="fil0 str7" points="150,610 150,608 149,608 149,610 "/>
   <polygon class="fil0 str7" points="127,610 127,608 126,608 126,610 "/>
   <polygon class="fil0 str7" points="128,632 128,610 127,610 127,632 "/>
   <path class="fil0 str7" d="M127 632c12,0 22,-10 22,-22"/>
   <polygon class="fil0 str7" points="93,730 91,730 91,729 93,729 "/>
   <polygon class="fil0 str7" points="114,708 93,708 93,707 114,707 "/>
   <path class="fil0 str7" d="M114 707c0,12 -9,21 -21,22"/>
   <polygon class="fil0 str0" points="209,746 209,609 205,609 205,746 "/>
   <polygon class="fil0 str0" points="150,595 150,609 126,609 126,595 "/>
   <polygon class="fil5 str11" points="246,44 246,54 235,54 235,44 "/>
   <polygon class="fil5 str11" points="140,44 140,54 129,54 129,44 "/>
   <polygon class="fil5 str11" points="245,159 245,170 235,170 235,159 "/>
   <polygon class="fil5 str11" points="246,230 246,241 235,241 235,230 "/>
   <polygon class="fil5 str11" points="140,159 140,170 129,170 129,159 "/>
   <polygon class="fil5 str11" points="140,231 140,242 129,242 129,231 "/>
   <polygon class="fil5 str11" points="56,232 56,242 45,242 45,232 "/>
   <polygon class="fil5 str11" points="54,343 54,353 44,353 44,343 "/>
   <polygon class="fil5 str11" points="56,473 56,483 45,483 45,473 "/>
   <polygon class="fil0 str0" points="216,308 208,308 208,284 216,284 "/>
   <polygon class="fil0 str0" points="208,308 200,308 200,284 208,284 "/>
   <polygon class="fil0 str0" points="200,308 193,308 193,284 200,284 "/>
   <polygon class="fil0 str0" points="193,308 185,308 185,284 193,284 "/>
   <polygon class="fil0 str0" points="185,308 177,308 177,284 185,284 "/>
   <polygon class="fil0 str0" points="177,308 170,308 170,284 177,284 "/>
   <polygon class="fil0 str0" points="170,308 162,308 162,284 170,284 "/>
   <polygon class="fil0 str0" points="162,308 154,308 154,284 162,284 "/>
   <polygon class="fil0 str0" points="154,308 147,308 147,284 154,284 "/>
   <polygon class="fil0 str0" points="147,308 139,308 139,284 147,284 "/>
   <polygon class="fil0 str0" points="139,308 132,308 132,284 139,284 "/>
   <polygon class="fil0 str0" points="132,308 124,308 124,284 132,284 "/>
   <polygon class="fil0 str0" points="216,284 216,308 239,308 239,284 "/>
   <polygon class="fil0 str14" points="100,525 100,517 124,517 124,525 "/>
   <polygon class="fil0 str14" points="100,517 100,509 124,509 124,517 "/>
   <polygon class="fil0 str14" points="100,509 100,502 124,502 124,509 "/>
   <polygon class="fil0 str14" points="100,502 100,494 124,494 124,502 "/>
   <polygon class="fil0 str14" points="100,494 100,486 124,486 124,494 "/>
   <polygon class="fil0 str14" points="100,486 100,479 124,479 124,486 "/>
   <polygon class="fil0 str14" points="100,479 100,471 124,471 124,479 "/>
   <polygon class="fil0 str14" points="100,471 100,464 124,464 124,471 "/>
   <polygon class="fil0 str14" points="100,464 100,456 124,456 124,464 "/>
   <polygon class="fil0 str14" points="100,456 100,448 124,448 124,456 "/>
   <polygon class="fil0 str14" points="100,448 100,441 124,441 124,448 "/>
   <polygon class="fil0 str14" points="100,441 100,433 124,433 124,441 "/>
   <polygon class="fil0 str14" points="155,524 155,517 179,517 179,524 "/>
   <polygon class="fil0 str14" points="155,517 155,509 179,509 179,517 "/>
   <polygon class="fil0 str14" points="155,509 155,502 179,502 179,509 "/>
   <polygon class="fil0 str14" points="155,502 155,494 179,494 179,502 "/>
   <polygon class="fil0 str14" points="155,494 155,486 179,486 179,494 "/>
   <polygon class="fil0 str14" points="155,486 155,479 179,479 179,486 "/>
   <polygon class="fil0 str14" points="155,479 155,471 179,471 179,479 "/>
   <polygon class="fil0 str14" points="155,471 155,463 179,463 179,471 "/>
   <polygon class="fil0 str14" points="155,463 155,456 179,456 179,463 "/>
   <polygon class="fil0 str14" points="155,456 155,448 179,448 179,456 "/>
   <polygon class="fil0 str14" points="155,448 155,441 179,441 179,448 "/>
   <polygon class="fil0 str14" points="155,441 155,433 179,433 179,441 "/>
   <polygon class="fil0 str0" points="124,433 124,284 100,284 100,433 "/>
  </g>
 </g>
</svg>
