<svg width="327" height="458" viewBox="0 0 327 458" fill="none" xmlns="http://www.w3.org/2000/svg">
<rect x="234" y="2" width="69" height="136" fill="#D9D9D9"/>
<rect x="30" y="120" width="122" height="83" fill="#D9D9D9"/>
<rect x="63.5" y="439" width="34" height="115" transform="rotate(180 63.5 439)" fill="#D9D9D9"/>
<rect x="30.5" y="439" width="34" height="115" transform="rotate(-90 30.5 439)" fill="#D9D9D9"/>
<rect x="2" y="2" width="323" height="227" stroke="black" stroke-width="4"/>
<rect x="2" y="229" width="164" height="227" stroke="#E78E4E" stroke-width="4"/>
<path d="M135.712 150V82.8H139.84L171.04 136.656H168.832L199.936 82.8H203.968L204.064 150H199.264L199.168 90.192H200.512L171.04 141.072H168.64L139.072 90.192H140.512V150H135.712Z" fill="black"/>
<path d="M65.712 380V312.8H89.808C95.44 312.8 100.272 313.696 104.304 315.488C108.336 317.28 111.44 319.872 113.616 323.264C115.792 326.592 116.88 330.656 116.88 335.456C116.88 340.128 115.792 344.16 113.616 347.552C111.44 350.944 108.336 353.536 104.304 355.328C100.272 357.12 95.44 358.016 89.808 358.016H68.4L70.608 355.712V380H65.712ZM70.608 356L68.4 353.6H89.808C97.04 353.6 102.512 352.032 106.224 348.896C110 345.696 111.888 341.216 111.888 335.456C111.888 329.632 110 325.152 106.224 322.016C102.512 318.816 97.04 317.216 89.808 317.216H68.4L70.608 314.816V356Z" fill="black"/>
<path d="M73.42 169.12C72.3533 169.12 71.3667 168.947 70.46 168.6C69.5667 168.24 68.7867 167.74 68.12 167.1C67.4667 166.46 66.9533 165.707 66.58 164.84C66.22 163.973 66.04 163.027 66.04 162C66.04 160.973 66.22 160.027 66.58 159.16C66.9533 158.293 67.4733 157.54 68.14 156.9C68.8067 156.26 69.5867 155.767 70.48 155.42C71.3867 155.06 72.3733 154.88 73.44 154.88C74.5067 154.88 75.48 155.047 76.36 155.38C77.2533 155.713 78.0133 156.22 78.64 156.9L77.72 157.84C77.1333 157.253 76.4867 156.833 75.78 156.58C75.0733 156.327 74.3133 156.2 73.5 156.2C72.6333 156.2 71.8333 156.347 71.1 156.64C70.38 156.92 69.7467 157.327 69.2 157.86C68.6667 158.38 68.2467 158.993 67.94 159.7C67.6467 160.393 67.5 161.16 67.5 162C67.5 162.827 67.6467 163.593 67.94 164.3C68.2467 165.007 68.6667 165.627 69.2 166.16C69.7467 166.68 70.38 167.087 71.1 167.38C71.8333 167.66 72.6267 167.8 73.48 167.8C74.28 167.8 75.0333 167.68 75.74 167.44C76.46 167.2 77.12 166.793 77.72 166.22L78.56 167.34C77.8933 167.927 77.1133 168.373 76.22 168.68C75.3267 168.973 74.3933 169.12 73.42 169.12ZM77.14 167.16V162H78.56V167.34L77.14 167.16ZM88.8288 169.12C87.7754 169.12 86.8021 168.947 85.9088 168.6C85.0154 168.24 84.2421 167.74 83.5888 167.1C82.9354 166.46 82.4221 165.707 82.0488 164.84C81.6888 163.973 81.5088 163.027 81.5088 162C81.5088 160.973 81.6888 160.027 82.0488 159.16C82.4221 158.293 82.9354 157.54 83.5888 156.9C84.2554 156.26 85.0354 155.767 85.9288 155.42C86.8221 155.06 87.7954 154.88 88.8488 154.88C89.8621 154.88 90.8154 155.053 91.7088 155.4C92.6021 155.733 93.3554 156.24 93.9688 156.92L93.0288 157.86C92.4554 157.273 91.8221 156.853 91.1288 156.6C90.4354 156.333 89.6888 156.2 88.8888 156.2C88.0488 156.2 87.2688 156.347 86.5488 156.64C85.8288 156.92 85.2021 157.327 84.6688 157.86C84.1354 158.38 83.7154 158.993 83.4087 159.7C83.1154 160.393 82.9688 161.16 82.9688 162C82.9688 162.84 83.1154 163.613 83.4087 164.32C83.7154 165.013 84.1354 165.627 84.6688 166.16C85.2021 166.68 85.8288 167.087 86.5488 167.38C87.2688 167.66 88.0488 167.8 88.8888 167.8C89.6888 167.8 90.4354 167.667 91.1288 167.4C91.8221 167.133 92.4554 166.707 93.0288 166.12L93.9688 167.06C93.3554 167.74 92.6021 168.253 91.7088 168.6C90.8154 168.947 89.8554 169.12 88.8288 169.12ZM102.911 169.12C101.857 169.12 100.884 168.947 99.9908 168.6C99.0974 168.24 98.3241 167.74 97.6708 167.1C97.0174 166.46 96.5041 165.707 96.1308 164.84C95.7708 163.973 95.5908 163.027 95.5908 162C95.5908 160.973 95.7708 160.027 96.1308 159.16C96.5041 158.293 97.0174 157.54 97.6708 156.9C98.3374 156.26 99.1174 155.767 100.011 155.42C100.904 155.06 101.877 154.88 102.931 154.88C103.944 154.88 104.897 155.053 105.791 155.4C106.684 155.733 107.437 156.24 108.051 156.92L107.111 157.86C106.537 157.273 105.904 156.853 105.211 156.6C104.517 156.333 103.771 156.2 102.971 156.2C102.131 156.2 101.351 156.347 100.631 156.64C99.9108 156.92 99.2841 157.327 98.7508 157.86C98.2174 158.38 97.7974 158.993 97.4908 159.7C97.1974 160.393 97.0508 161.16 97.0508 162C97.0508 162.84 97.1974 163.613 97.4908 164.32C97.7974 165.013 98.2174 165.627 98.7508 166.16C99.2841 166.68 99.9108 167.087 100.631 167.38C101.351 167.66 102.131 167.8 102.971 167.8C103.771 167.8 104.517 167.667 105.211 167.4C105.904 167.133 106.537 166.707 107.111 166.12L108.051 167.06C107.437 167.74 106.684 168.253 105.791 168.6C104.897 168.947 103.937 169.12 102.911 169.12ZM112.601 169V155.6L113.241 156.28H109.301V155H114.041V169H112.601Z" fill="#B0B0B0"/>
</svg>
