<?xml version="1.0" encoding="UTF-8"?>
<!DOCTYPE svg PUBLIC "-//W3C//DTD SVG 1.1//EN" "http://www.w3.org/Graphics/SVG/1.1/DTD/svg11.dtd">
<!-- Creator: CorelDRAW X8 -->
<svg xmlns="http://www.w3.org/2000/svg" xml:space="preserve" width="20.1326mm" height="24.13mm" version="1.1" style="shape-rendering:geometricPrecision; text-rendering:geometricPrecision; image-rendering:optimizeQuality; fill-rule:evenodd; clip-rule:evenodd"
viewBox="0 0 82 99"
 xmlns:xlink="http://www.w3.org/1999/xlink">
 <defs>
  <style type="text/css">
   <![CDATA[
    .fil0 {fill:#2B2A29;fill-rule:nonzero}
   ]]>
  </style>
 </defs>
 <g id="Слой_x0020_1">
  <metadata id="CorelCorpID_0Corel-Layer"/>
  <polygon class="fil0" points="32,12 37,0 25,6 12,0 17,12 "/>
  <path class="fil0" d="M21 27l1 -6c2,0 3,1 2,3 0,1 -1,3 -3,3zm39 -27l0 0 -4 23c5,4 9,11 10,18 4,17 -6,33 -21,38l5 -25c1,-6 -2,-9 -7,-8l-19 4c0,0 2,-11 5,-25 2,-6 -1,-10 -7,-8 -9,1 -16,10 -19,16l11 -2 -14 68 15 -3 7 -36 11 -2c0,0 1,1 1,2l-7 33 13 -2c1,-1 2,-1 2,-1l0 0c24,-5 40,-25 40,-48l0 -1c0,-3 0,-6 -1,-10 -2,-13 -10,-24 -21,-31zm-40 28c-2,0 -3,-1 -3,-3 1,-1 2,-3 4,-3l-1 6z"/>
 </g>
</svg>
