<?xml version="1.0" encoding="UTF-8"?>
<!DOCTYPE svg PUBLIC "-//W3C//DTD SVG 1.1//EN" "http://www.w3.org/Graphics/SVG/1.1/DTD/svg11.dtd">
<!-- Creator: CorelDRAW X8 -->
<svg xmlns="http://www.w3.org/2000/svg" xml:space="preserve" width="47.5892mm" height="21.2386mm" version="1.1" style="shape-rendering:geometricPrecision; text-rendering:geometricPrecision; image-rendering:optimizeQuality; fill-rule:evenodd; clip-rule:evenodd"
viewBox="0 0 386 172"
 xmlns:xlink="http://www.w3.org/1999/xlink">
 <defs>
  <style type="text/css">
   <![CDATA[
    .fil1 {fill:#FEFEFE;fill-rule:nonzero}
    .fil0 {fill:#2B2A29;fill-rule:nonzero}
   ]]>
  </style>
 </defs>
 <g id="Слой_x0020_1">
  <metadata id="CorelCorpID_0Corel-Layer"/>
  <polygon class="fil0" points="0,0 386,0 386,172 0,172 "/>
  <polygon class="fil1" points="115,68 137,68 138,89 138,89 147,68 169,68 161,107 148,107 154,76 154,76 140,107 127,107 126,76 126,76 119,107 107,107 "/>
  <path class="fil1" d="M200 92l1 0c4,0 6,-4 6,-8 0,-2 -1,-4 -4,-4l0 0 -3 12zm-11 -12l-1 0c-4,0 -7,4 -7,8 0,2 2,4 4,4l1 0 3 -12zm-6 28l1 -7 -3 0c-10,0 -14,-6 -14,-11 0,-9 7,-19 21,-19l2 0 1 -6 15 0 -1 6 2 0c6,0 15,1 15,12 0,9 -7,18 -20,18l-3 0 -1 7 -15 0z"/>
  <polygon class="fil1" points="266,68 264,79 251,79 245,107 230,107 236,79 223,79 225,68 "/>
  <polygon class="fil1" points="285,68 280,90 280,90 295,68 312,68 304,107 289,107 294,85 294,85 279,107 262,107 270,68 "/>
  <polygon class="fil1" points="324,122 326,110 347,117 "/>
  <path class="fil1" d="M319 113l-217 0c-4,0 -6,4 -7,9 -1,1 -2,4 -2,5 -2,-2 -3,-8 -3,-10l0 -2c-2,-8 -3,-16 -4,-25 -5,-37 -7,-50 -14,-50 -8,0 -12,15 -21,60l-1 6c-1,7 -4,7 -5,7l-5 0 -1 6 6 0c3,0 9,-2 11,-12l1 -5c6,-28 11,-54 15,-56 3,4 6,27 8,45 2,8 3,17 4,25l0 2c1,6 3,15 9,15 4,0 6,-5 7,-9 1,-2 2,-4 3,-5l215 0 1 -6z"/>
 </g>
</svg>
