<?xml version="1.0" encoding="UTF-8"?>
<!DOCTYPE svg PUBLIC "-//W3C//DTD SVG 1.1//EN" "http://www.w3.org/Graphics/SVG/1.1/DTD/svg11.dtd">
<!-- Creator: CorelDRAW X8 -->
<svg xmlns="http://www.w3.org/2000/svg" xml:space="preserve" width="70.1372mm" height="21.0518mm" version="1.1" style="shape-rendering:geometricPrecision; text-rendering:geometricPrecision; image-rendering:optimizeQuality; fill-rule:evenodd; clip-rule:evenodd"
viewBox="0 0 689 207"
 xmlns:xlink="http://www.w3.org/1999/xlink">
 <defs>
  <style type="text/css">
   <![CDATA[
    .fil0 {fill:#2B2A29;fill-rule:nonzero}
   ]]>
  </style>
 </defs>
 <g id="Слой_x0020_1">
  <metadata id="CorelCorpID_0Corel-Layer"/>
  <polygon class="fil0" points="168,61 218,61 220,109 220,109 241,61 291,61 273,149 243,149 257,80 256,80 225,149 197,149 194,80 193,80 179,149 150,149 "/>
  <path class="fil0" d="M360 116l2 0c9,0 14,-10 14,-17 0,-6 -3,-10 -9,-10l-2 0 -5 27zm-25 -27l-2 0c-9,0 -15,9 -15,17 0,5 3,10 9,10l2 0 6 -27zm-14 62l2 -14 -6 0c-23,0 -31,-13 -31,-27 0,-19 15,-41 46,-41l5 0 3 -14 33 0 -2 14 5 0c12,0 32,3 32,26 0,20 -14,42 -44,42l-7 0 -3 14 -33 0z"/>
  <polygon class="fil0" points="508,61 503,87 473,87 461,149 427,149 440,87 410,87 415,61 "/>
  <polygon class="fil0" points="549,61 539,111 540,111 572,61 611,61 593,149 560,149 570,100 569,100 537,149 498,149 516,61 "/>
  <polygon class="fil0" points="637,182 642,157 689,171 "/>
  <path class="fil0" d="M626 163l-485 0c-9,0 -13,10 -17,20 -1,3 -3,8 -5,10 -3,-3 -5,-16 -6,-22l0 -3c-3,-18 -6,-38 -8,-56 -11,-83 -17,-112 -32,-112 -19,0 -26,34 -46,135l-3 13c-3,15 -10,15 -13,15l-9 0 -2 13 11 0c8,0 21,-3 26,-25l3 -14c12,-62 24,-121 32,-124 7,8 15,61 20,100 2,19 5,39 8,57l0 3c3,15 5,34 19,34 9,0 13,-10 17,-20 1,-3 4,-9 5,-11l483 0 2 -13z"/>
 </g>
</svg>
