<svg width="100" height="61" viewBox="0 0 100 61" fill="none" xmlns="http://www.w3.org/2000/svg">
<path d="M100 30.8427C79.7957 21.0187 38.0251 1.09663 32.5767 0C31.2146 1.82772 28.2181 6.4427 27.1284 10.2809C25.7663 15.0787 25.7663 20.5618 26.4473 25.3596C27.1284 30.1573 31.2146 34.2697 35.9819 36.3258C39.7958 37.9708 41.4305 37.6966 44.1547 37.0112C46.8789 36.3258 51.1011 31.5281 51.6459 31.5281C52.327 31.5281 54.3701 30.8427 54.3701 33.5843C54.3701 36.3258 54.3701 50.0337 57.7753 55.5169C61.1805 61 70.0344 62.3708 76.8445 59.6292C83.9985 56.7492 95.4597 39.9813 100 30.8427Z" fill="#AE8AAA"/>
</svg>
