<svg width="65" height="40" viewBox="0 0 65 40" fill="none" xmlns="http://www.w3.org/2000/svg">
<path d="M64.4555 20.5622C51.4328 14.2301 24.5096 1.38936 20.9978 0.682526C20.1199 1.86058 18.1884 4.83516 17.4861 7.30908C16.6082 10.4015 16.6082 13.9356 17.0471 17.028C17.4861 20.1204 20.1199 22.771 23.1927 24.0963C25.6509 25.1566 26.7045 24.9799 28.4604 24.5381C30.2163 24.0963 32.9377 21.0039 33.2889 21.0039C33.7278 21.0039 35.0447 20.5622 35.0447 22.3293C35.0447 24.0963 35.0447 32.9317 37.2396 36.4659C39.4344 40.0001 45.1411 40.8836 49.5306 39.1165C54.1417 37.2602 61.529 26.4524 64.4555 20.5622Z" fill="#AE8AAA"/>
</svg>
