<svg width="72" height="53" viewBox="0 0 72 53" fill="none" xmlns="http://www.w3.org/2000/svg">
<path d="M56.1398 52.2628L21.8634 10.3246C21.2062 11.1764 19.8007 13.4212 19.4367 15.5857C18.9818 18.2914 20.1951 22.3499 20.8017 25.9575C21.4084 29.5651 27.02 35.728 31.115 39.4859C34.3909 42.4922 49.1631 49.2565 56.1398 52.2628Z" fill="#6999B0"/>
<path d="M71.5457 24.4146L57.332 51.4069C57.6376 49.3345 58.249 44.8257 58.249 43.3699C58.249 41.5502 57.6376 37.7591 57.0263 34.8779C56.4149 31.9967 55.7789 30.8046 55.0394 29.4188C53.6639 26.8409 52.4412 25.7794 51.2185 24.5662C48.6757 22.0433 41.0295 17.8434 37.4633 16.3776L28.5988 12.2832C27.8347 11.8283 25.8478 10.9184 24.1666 10.4635C23.8717 10.3837 23.7081 11.525 23.0967 11.8283L20.1929 11.9799L26.1535 0.910034L71.5457 24.4146Z" fill="#335F95"/>
</svg>
