<svg width="111" height="80" viewBox="0 0 111 80" fill="none" xmlns="http://www.w3.org/2000/svg">
<path d="M87.0985 79.6724L33.9198 14.6066C32.9001 15.9281 30.7196 19.4107 30.1549 22.769C29.449 26.9668 31.3314 33.2634 32.2726 38.8605C33.2138 44.4576 41.9201 54.0192 48.2733 59.8495C53.3559 64.5137 76.2745 75.0081 87.0985 79.6724Z" fill="#6999B0"/>
<path d="M111 36.4666L88.9473 78.3445C89.4216 75.1291 90.3701 68.1338 90.3701 65.8752C90.3701 63.052 89.4216 57.1703 88.4731 52.7002C87.5246 48.2301 86.5378 46.3806 85.3905 44.2305C83.2565 40.2309 81.3595 38.5841 79.4625 36.7019C75.5175 32.7877 63.6545 26.2717 58.1217 23.9974L44.3688 17.6452C43.1832 16.9393 40.1006 15.5277 37.4923 14.8219C37.0347 14.6981 36.7809 16.4688 35.8324 16.9393L31.3271 17.1746L40.5748 0L111 36.4666Z" fill="#335F95"/>
</svg>
