<svg width="74" height="73" viewBox="0 0 74 73" fill="none" xmlns="http://www.w3.org/2000/svg">
<path d="M52.1639 72.7869L3.581 13.3443C2.64947 14.5516 0.657427 17.7332 0.141502 20.8012C-0.503404 24.6362 1.21635 30.3887 2.07622 35.5021C2.9361 40.6154 10.8899 49.3507 16.6941 54.6771C21.3374 58.9383 42.2754 68.5258 52.1639 72.7869Z" fill="#6999B0"/>
<path d="M73.9998 33.3151L53.8534 71.5738C54.2867 68.6363 55.1532 62.2455 55.1532 60.1821C55.1532 57.6029 54.2867 52.2295 53.4202 48.1457C52.5536 44.0619 51.6521 42.3723 50.604 40.408C48.6543 36.7541 46.9213 35.2495 45.1883 33.5301C41.5842 29.9541 30.7465 24.0012 25.6918 21.9235L13.1274 16.1202C12.0443 15.4754 9.22811 14.1858 6.84521 13.541C6.42722 13.4279 6.19533 15.0455 5.32882 15.4754L1.21289 15.6903L9.66137 0L73.9998 33.3151Z" fill="#335F95"/>
</svg>
